if (_typeface_js &&
   _typeface_js.loadFace)
_typeface_js.loadFace({"glyphs":{"Ａ":{"ha":1389,"x_min":132,"x_max":1263,"o":"m 465 404 l 854 404 l 653 924 l 465 404 m 1113 63 l 1263 51 l 1263 0 l 838 0 l 838 51 l 986 63 l 874 351 l 446 351 l 343 64 l 492 51 l 492 0 l 132 0 l 132 51 l 281 64 l 646 1039 l 731 1039 l 1113 63 z "},"Ｂ":{"ha":1389,"x_min":257,"x_max":1168,"o":"m 536 54 l 753 54 q 971 113 896 54 q 1046 283 1046 172 q 735 517 1046 517 l 535 517 q 536 54 535 203 m 722 982 l 536 982 q 535 568 535 847 l 718 568 q 923 628 850 568 q 996 792 996 689 q 934 933 996 883 q 722 982 872 982 m 257 1039 l 753 1039 q 1113 797 1113 1039 q 1051 641 1113 707 q 861 550 990 575 q 1094 464 1019 535 q 1168 281 1168 393 q 1069 78 1168 157 q 747 0 969 0 l 257 0 l 257 51 l 411 63 q 414 481 414 201 l 414 556 q 411 975 414 836 l 257 986 l 257 1039 z "},"Ｃ":{"ha":1389,"x_min":233,"x_max":1133,"o":"m 1067 285 l 1133 285 l 1126 63 q 799 -25 986 -25 q 390 122 546 -25 q 233 521 233 268 q 388 916 233 769 q 797 1063 542 1063 q 1111 982 969 1063 l 1117 754 l 1050 754 l 1018 957 q 804 1008 931 1008 q 481 879 600 1008 q 361 521 361 750 q 481 160 361 289 q 801 31 601 31 q 1032 83 931 31 l 1067 285 z "},"Ｄ":{"ha":1389,"x_min":233,"x_max":1183,"o":"m 513 54 l 615 54 q 944 174 833 54 q 1056 519 1056 293 q 631 982 1056 982 l 513 982 q 511 557 511 842 l 511 481 q 513 54 511 196 m 233 1039 l 654 1039 q 1043 903 903 1039 q 1183 521 1183 768 q 1040 140 1183 281 q 642 0 896 0 l 233 0 l 233 51 l 389 63 q 390 481 390 200 l 390 557 q 389 975 390 838 l 233 986 l 233 1039 z "},"Ｅ":{"ha":1389,"x_min":286,"x_max":1132,"o":"m 1061 244 l 1132 244 l 1118 0 l 286 0 l 286 51 l 428 63 q 431 481 431 203 l 431 557 q 428 975 431 836 l 286 986 l 286 1039 l 1093 1039 l 1107 792 l 1035 792 l 1008 983 l 553 983 q 550 556 550 847 l 900 556 l 917 693 l 968 693 l 968 363 l 917 363 l 900 501 l 550 501 q 553 53 550 194 l 1033 53 l 1061 244 z "},"Ｆ":{"ha":1389,"x_min":294,"x_max":1124,"o":"m 1026 983 l 561 983 q 558 556 558 847 l 903 556 l 919 693 l 971 693 l 971 358 l 919 358 l 903 501 l 558 501 q 561 64 558 200 l 718 51 l 718 0 l 294 0 l 294 51 l 436 63 q 438 481 438 200 l 438 557 q 436 976 438 838 l 294 986 l 294 1039 l 1110 1039 l 1124 792 l 1053 792 l 1026 983 z "},"Ｇ":{"ha":1389,"x_min":228,"x_max":1244,"o":"m 1244 514 l 1244 464 l 1118 450 q 1115 143 1115 269 l 1115 69 q 945 -4 1028 17 q 754 -25 863 -25 q 372 124 517 -25 q 228 519 228 272 q 373 914 228 765 q 760 1063 518 1063 q 1096 979 956 1063 l 1101 753 l 1035 753 l 1001 957 q 774 1010 906 1010 q 472 878 586 1010 q 357 519 357 747 q 470 160 357 290 q 768 29 583 29 q 996 78 900 29 l 996 146 q 992 449 996 296 l 814 464 l 814 514 l 1244 514 z "},"Ｈ":{"ha":1389,"x_min":125,"x_max":1264,"o":"m 1264 986 l 1110 975 q 1108 557 1108 838 l 1108 481 q 1110 63 1108 201 l 1264 51 l 1264 0 l 831 0 l 831 51 l 985 63 q 988 515 988 199 l 401 515 q 404 63 401 200 l 558 51 l 558 0 l 125 0 l 125 51 l 279 63 q 281 481 281 200 l 281 557 q 279 975 281 838 l 125 986 l 125 1039 l 558 1039 l 558 986 l 404 975 q 401 572 401 843 l 988 572 q 985 975 988 843 l 831 986 l 831 1039 l 1264 1039 l 1264 986 z "},"Ｉ":{"ha":1389,"x_min":490,"x_max":900,"o":"m 900 986 l 757 975 q 756 557 756 838 l 756 481 q 757 63 756 201 l 900 51 l 900 0 l 490 0 l 490 51 l 632 64 q 633 481 633 200 l 633 557 q 632 975 633 838 l 490 986 l 490 1039 l 900 1039 l 900 986 z "},"Ｊ":{"ha":1389,"x_min":278,"x_max":1135,"o":"m 1135 1039 l 1135 986 l 965 975 q 964 558 964 838 l 964 408 q 940 199 964 289 q 825 35 914 96 q 586 -25 736 -25 q 278 172 322 -25 q 331 215 289 215 q 369 201 356 215 q 393 150 383 186 l 426 57 q 568 31 483 31 q 842 328 842 31 q 839 975 842 660 l 633 986 l 633 1039 l 1135 1039 z "},"Ｋ":{"ha":1389,"x_min":204,"x_max":1244,"o":"m 1100 63 l 1244 51 l 1244 0 l 833 0 l 833 51 l 964 61 l 664 557 l 482 364 q 483 63 482 176 l 629 51 l 629 0 l 204 0 l 204 51 l 358 63 q 361 481 361 200 l 361 557 q 358 975 361 838 l 204 986 l 204 1039 l 629 1039 l 629 986 l 483 975 q 482 557 482 838 l 482 436 l 989 975 l 846 986 l 846 1039 l 1214 1039 l 1214 986 l 1057 974 l 742 639 l 1100 63 z "},"Ｌ":{"ha":1389,"x_min":283,"x_max":1156,"o":"m 1086 271 l 1156 271 l 1140 0 l 283 0 l 283 51 l 439 63 q 442 481 442 200 l 442 557 q 439 975 442 838 l 283 986 l 283 1039 l 733 1039 l 733 986 l 564 975 q 561 557 561 838 l 561 481 q 564 54 561 196 l 1056 54 l 1086 271 z "},"Ｍ":{"ha":1389,"x_min":46,"x_max":1335,"o":"m 1171 63 l 1335 51 l 1335 0 l 889 0 l 889 51 l 1043 63 q 1047 481 1047 268 l 1047 876 l 686 0 l 636 0 l 269 869 l 268 65 l 426 51 l 426 0 l 46 0 l 46 51 l 208 65 l 210 974 l 64 986 l 64 1039 l 326 1039 l 696 174 l 1056 1039 l 1326 1039 l 1326 986 l 1171 975 q 1168 557 1168 838 l 1168 481 q 1171 63 1168 201 z "},"Ｎ":{"ha":1389,"x_min":138,"x_max":1264,"o":"m 1264 1039 l 1264 986 l 1100 975 l 1100 -10 l 1031 -10 l 360 883 l 360 64 l 542 51 l 542 0 l 138 0 l 138 51 l 299 64 l 299 964 l 292 974 l 138 986 l 138 1039 l 396 1039 l 1040 178 l 1040 975 l 860 986 l 860 1039 l 1264 1039 z "},"Ｏ":{"ha":1389,"x_min":181,"x_max":1208,"o":"m 412 872 q 361 803 412 872 q 310 518 310 735 q 412 166 310 301 q 694 31 514 31 q 977 166 875 31 q 1079 518 1079 301 q 977 872 1079 735 q 694 1008 875 1008 q 412 872 514 1008 m 694 1063 q 1065 915 921 1063 q 1208 518 1208 768 q 1065 122 1208 268 q 694 -25 921 -25 q 324 122 468 -25 q 181 518 181 268 q 325 915 181 768 q 694 1063 469 1063 z "},"Ｐ":{"ha":1389,"x_min":283,"x_max":1157,"o":"m 760 982 l 564 982 q 563 557 563 842 l 563 474 l 726 474 q 962 542 885 474 q 1039 735 1039 611 q 760 982 1039 982 m 726 421 l 563 421 q 564 64 563 189 l 738 51 l 738 0 l 283 0 l 283 51 l 438 64 q 440 481 440 154 l 440 557 q 438 975 440 883 l 283 986 l 283 1039 l 761 1039 q 1157 735 1157 1039 q 1051 505 1157 589 q 726 421 946 421 z "},"Ｑ":{"ha":1389,"x_min":181,"x_max":1208,"o":"m 412 872 q 361 803 412 872 q 310 518 310 735 q 412 166 310 301 q 694 31 514 31 q 977 166 875 31 q 1079 518 1079 301 q 977 872 1079 735 q 694 1008 875 1008 q 412 872 514 1008 m 1172 -199 l 1194 -243 q 976 -308 1094 -308 q 734 -224 818 -308 q 646 -24 650 -140 q 310 138 439 -7 q 181 518 181 283 q 325 915 181 768 q 694 1063 469 1063 q 1065 915 921 1063 q 1208 518 1208 768 q 1087 147 1208 290 q 768 -21 965 4 q 835 -183 776 -124 q 988 -242 893 -242 q 1172 -199 1092 -242 z "},"Ｒ":{"ha":1389,"x_min":228,"x_max":1254,"o":"m 506 533 l 711 533 q 894 597 826 533 q 963 764 963 661 q 697 982 963 982 l 508 982 q 506 533 506 844 m 1089 64 l 1254 51 l 1254 0 q 1122 -14 1185 -14 q 1010 9 1046 -14 q 960 85 974 32 l 867 322 q 838 393 849 371 q 806 440 826 415 q 756 472 785 464 q 681 481 726 481 l 506 481 q 508 64 506 197 l 676 51 l 676 0 l 228 0 l 228 51 l 383 63 q 385 481 385 132 l 385 557 q 383 975 385 906 l 228 986 l 228 1039 l 729 1039 q 993 971 901 1039 q 1085 771 1085 903 q 1015 599 1085 671 q 814 506 944 526 q 927 449 893 489 q 992 318 961 408 l 1089 64 z "},"Ｓ":{"ha":1389,"x_min":325,"x_max":1078,"o":"m 658 606 l 796 563 q 1015 442 953 514 q 1078 265 1078 369 q 972 51 1078 126 q 682 -25 867 -25 q 325 69 479 -25 l 336 278 l 408 278 l 429 88 q 682 32 536 32 q 889 85 813 32 q 965 235 965 139 q 916 365 965 314 q 753 453 867 415 l 622 492 q 358 783 358 571 q 463 990 358 918 q 732 1063 567 1063 q 1028 981 899 1063 l 1022 782 l 947 782 l 926 963 q 736 1007 839 1007 q 542 956 615 1007 q 468 810 468 904 q 658 606 468 665 z "},"Ｔ":{"ha":1389,"x_min":228,"x_max":1161,"o":"m 1064 983 l 757 983 q 756 557 756 843 l 756 481 q 757 64 756 201 l 940 51 l 940 0 l 449 0 l 449 51 l 632 64 q 633 481 633 201 l 633 557 q 632 983 633 843 l 325 983 l 300 772 l 228 772 l 238 1039 l 1151 1039 l 1161 772 l 1090 772 l 1064 983 z "},"Ｕ":{"ha":1389,"x_min":142,"x_max":1246,"o":"m 1246 1039 l 1246 986 l 1107 976 l 1107 421 q 1003 88 1107 201 q 706 -25 900 -25 q 297 414 297 -25 l 297 557 q 296 975 297 836 l 142 986 l 142 1039 l 585 1039 l 585 986 l 421 975 q 419 557 419 838 l 419 415 q 499 139 419 225 q 732 53 579 53 q 969 144 893 53 q 1046 438 1046 236 l 1046 976 l 897 986 l 897 1039 l 1246 1039 z "},"Ｖ":{"ha":1389,"x_min":150,"x_max":1276,"o":"m 1276 1039 l 1276 986 l 1131 974 l 761 -10 l 678 -10 l 296 976 l 150 986 l 150 1039 l 590 1039 l 590 986 l 425 975 l 750 118 l 1071 974 l 919 986 l 919 1039 l 1276 1039 z "},"Ｗ":{"ha":1389,"x_min":4,"x_max":1406,"o":"m 1406 1039 l 1406 986 l 1271 974 l 1017 -10 l 939 -10 l 700 854 l 465 -10 l 388 -10 l 122 976 l 4 986 l 4 1039 l 383 1039 l 383 986 l 250 975 l 458 150 l 679 975 l 535 986 l 535 1039 l 932 1039 l 932 986 l 786 975 l 1008 149 l 1211 974 l 1078 986 l 1078 1039 l 1406 1039 z "},"Ｘ":{"ha":1389,"x_min":163,"x_max":1226,"o":"m 1078 64 l 1226 51 l 1226 0 l 817 0 l 817 51 l 950 63 l 678 458 l 386 61 l 536 51 l 536 0 l 163 0 l 163 51 l 311 61 l 646 503 l 322 975 l 188 986 l 188 1039 l 592 1039 l 592 986 l 449 976 l 717 588 l 996 975 l 847 986 l 847 1039 l 1207 1039 l 1207 986 l 1069 975 l 749 543 l 1078 64 z "},"Ｙ":{"ha":1389,"x_min":176,"x_max":1243,"o":"m 1085 974 l 765 413 l 765 354 q 768 64 765 168 l 943 51 l 943 0 l 465 0 l 465 51 l 640 64 q 643 354 643 168 l 643 413 l 325 975 l 176 986 l 176 1039 l 618 1039 l 618 986 l 464 976 l 742 476 l 1022 974 l 868 986 l 868 1039 l 1243 1039 l 1243 986 l 1085 974 z "},"Ｚ":{"ha":1389,"x_min":279,"x_max":1128,"o":"m 1063 265 l 1128 265 l 1114 0 l 279 0 l 279 42 l 967 983 l 392 983 l 358 772 l 293 772 l 306 1039 l 1110 1039 l 1110 996 l 422 54 l 1028 54 l 1063 265 z "},"ａ":{"ha":1389,"x_min":340,"x_max":1153,"o":"m 888 147 l 888 414 q 681 367 754 389 q 506 294 560 336 q 453 185 453 253 q 498 84 453 119 q 628 49 543 49 q 888 147 751 49 m 1129 68 l 1153 46 q 1022 -25 1108 -25 q 890 103 906 -25 q 575 -25 753 -25 q 403 24 467 -25 q 340 164 340 74 q 412 313 340 254 q 664 411 483 371 q 888 454 761 433 l 888 500 q 841 663 888 619 q 681 707 794 707 q 507 671 592 707 l 486 604 q 419 531 468 531 q 360 574 369 531 q 478 708 383 658 q 711 757 572 757 q 936 696 865 757 q 1007 497 1007 635 l 1007 154 q 1021 64 1007 88 q 1067 40 1035 40 q 1129 68 1092 40 z "},"ｂ":{"ha":1389,"x_min":222,"x_max":1110,"o":"m 494 589 l 494 133 q 721 47 590 47 q 909 135 836 47 q 982 372 982 224 q 910 604 982 522 q 718 686 839 686 q 494 589 603 686 m 493 900 l 493 638 q 768 757 603 757 q 1013 653 915 757 q 1110 372 1110 550 q 1009 82 1110 189 q 749 -25 908 -25 q 492 88 594 -25 l 482 -10 l 222 0 l 222 49 l 372 61 q 375 326 375 222 l 375 1047 l 222 1053 l 222 1097 l 472 1132 l 497 1119 l 493 900 z "},"ｃ":{"ha":1389,"x_min":335,"x_max":1063,"o":"m 1032 153 l 1063 122 q 735 -25 954 -25 q 447 82 560 -25 q 335 368 335 189 q 453 651 335 546 q 756 757 571 757 q 951 708 868 757 q 1061 574 1035 658 q 1003 525 1047 525 q 933 599 950 525 l 910 681 q 767 707 851 707 q 551 619 639 707 q 464 381 464 531 q 552 145 464 235 q 775 56 640 56 q 1032 153 931 56 z "},"ｄ":{"ha":1389,"x_min":275,"x_max":1161,"o":"m 892 146 l 892 593 q 671 686 793 686 q 478 598 553 686 q 404 361 404 510 q 475 129 404 211 q 667 47 546 47 q 892 146 788 47 m 1011 61 l 1161 49 l 1161 0 l 896 -10 l 893 93 q 618 -25 782 -25 q 372 78 469 -25 q 275 360 275 182 q 379 649 275 540 q 640 757 483 757 q 893 643 793 757 l 893 1047 l 740 1053 l 740 1097 l 992 1132 l 1015 1119 l 1011 904 l 1011 61 z "},"ｅ":{"ha":1389,"x_min":328,"x_max":1064,"o":"m 458 422 l 896 422 q 936 438 925 422 q 947 496 947 454 q 888 647 947 588 q 726 707 829 707 q 542 631 615 707 q 458 422 468 554 m 1017 149 l 1047 118 q 732 -25 950 -25 q 445 78 563 -25 q 328 371 328 182 q 446 652 328 547 q 731 757 564 757 q 976 672 888 757 q 1064 457 1064 586 q 1054 369 1064 407 l 457 369 q 551 137 461 218 q 764 56 640 56 q 1017 149 924 56 z "},"ｆ":{"ha":1389,"x_min":442,"x_max":1144,"o":"m 442 722 l 599 733 q 640 945 606 863 q 744 1086 674 1028 q 1000 1163 842 1163 q 1144 1104 1122 1163 q 1126 1058 1144 1075 q 1078 1042 1108 1042 q 967 1094 1035 1042 l 936 1115 q 815 1051 867 1096 q 742 933 764 1001 q 717 732 719 864 l 1004 732 l 1004 660 l 717 672 l 717 326 q 719 61 717 236 l 904 49 l 904 0 l 463 0 l 463 49 l 594 60 q 597 326 597 149 l 597 674 l 442 674 l 442 722 z "},"ｇ":{"ha":1389,"x_min":325,"x_max":1117,"o":"m 543 358 q 569 330 543 358 q 678 301 594 301 q 813 358 761 301 q 864 506 864 415 q 813 653 864 597 q 678 710 761 710 q 543 654 594 710 q 492 506 492 599 q 543 358 492 414 m 860 -15 l 615 -15 q 490 1 540 -15 q 433 -57 451 -29 q 415 -125 415 -85 q 489 -244 415 -201 q 701 -286 563 -286 q 927 -239 849 -286 q 1006 -117 1006 -192 q 860 -15 1006 -15 m 1117 735 l 1117 656 l 924 660 q 976 506 976 596 q 897 324 976 394 q 678 253 818 253 q 518 285 585 253 q 474 235 486 254 q 463 188 463 215 q 617 96 463 96 l 850 96 q 1113 -86 1113 96 q 1000 -269 1113 -194 q 681 -344 888 -344 q 416 -290 507 -344 q 325 -147 325 -235 q 449 19 325 -40 q 375 143 375 60 q 483 304 375 231 q 379 506 379 375 q 458 687 379 617 q 678 757 538 757 q 885 697 806 757 l 1093 750 l 1117 735 z "},"ｈ":{"ha":1389,"x_min":210,"x_max":1175,"o":"m 1049 60 l 1175 49 l 1175 0 l 799 0 l 799 49 l 922 60 q 925 326 925 218 l 925 467 q 886 627 925 579 q 763 675 847 675 q 482 554 619 675 l 482 326 q 485 60 482 218 l 610 49 l 610 0 l 232 0 l 232 49 l 360 60 q 363 326 363 221 l 363 1047 l 210 1053 l 210 1097 l 460 1132 l 485 1119 l 481 900 l 481 604 q 644 724 565 690 q 814 757 724 757 q 1046 485 1046 757 l 1046 326 q 1049 60 1046 218 z "},"ｉ":{"ha":1389,"x_min":528,"x_max":963,"o":"m 738 963 q 679 986 704 963 q 654 1044 654 1010 q 679 1101 654 1078 q 738 1124 704 1124 q 797 1101 772 1124 q 821 1044 821 1078 q 797 985 821 1008 q 738 963 772 963 m 808 63 l 963 49 l 963 0 l 528 0 l 528 49 l 682 63 q 685 326 685 221 l 685 399 q 681 657 685 540 l 532 660 l 532 704 l 790 749 l 808 738 l 806 543 l 806 326 q 808 63 806 221 z "},"ｊ":{"ha":1389,"x_min":264,"x_max":886,"o":"m 801 963 q 744 986 769 963 q 718 1044 718 1010 q 744 1101 718 1078 q 801 1124 769 1124 q 861 1101 836 1124 q 886 1044 886 1078 q 861 985 886 1008 q 801 963 836 963 m 597 704 l 854 749 l 874 738 l 869 543 l 869 183 q 853 -108 869 -14 q 789 -264 836 -203 q 522 -386 699 -386 q 341 -331 418 -386 q 264 -200 264 -275 q 326 -153 278 -153 q 400 -254 382 -153 l 415 -315 q 507 -335 460 -335 q 619 -306 567 -335 q 703 -224 671 -278 q 750 103 750 -144 l 750 399 q 744 657 750 510 l 597 660 l 597 704 z "},"ｋ":{"ha":1389,"x_min":244,"x_max":1157,"o":"m 1006 63 l 1157 49 l 1157 0 l 922 0 l 656 406 l 518 278 q 519 60 518 126 l 646 49 l 646 0 l 268 0 l 268 49 l 394 60 q 397 326 397 221 l 397 1047 l 244 1053 l 244 1097 l 497 1132 l 522 1119 l 518 900 l 518 342 l 872 675 l 733 686 l 733 732 l 1108 732 l 1108 686 l 949 675 l 732 475 l 1006 63 z "},"ｌ":{"ha":1389,"x_min":482,"x_max":889,"o":"m 758 60 l 889 49 l 889 0 l 500 0 l 500 49 l 631 60 q 635 326 635 193 l 635 1047 l 482 1053 l 482 1097 l 735 1132 l 758 1119 l 754 900 l 754 326 q 758 60 754 193 z "},"ｍ":{"ha":1389,"x_min":47,"x_max":1363,"o":"m 1240 60 l 1363 49 l 1363 0 l 993 0 l 993 49 l 1114 60 q 1117 326 1117 218 l 1117 478 q 967 675 1117 675 q 761 565 858 675 q 765 499 765 533 l 765 326 q 768 60 765 218 l 888 49 l 888 0 l 522 0 l 522 49 l 642 60 q 644 326 644 218 l 644 486 q 493 675 644 675 q 292 558 382 675 l 292 326 q 294 60 292 218 l 417 49 l 417 0 l 51 0 l 51 49 l 169 60 q 172 326 172 218 l 172 406 q 168 657 172 549 l 47 660 l 47 704 l 268 749 l 286 738 l 290 613 q 543 757 396 757 q 750 614 708 757 q 1008 757 868 757 q 1180 692 1122 757 q 1238 486 1238 628 l 1238 326 q 1240 60 1238 218 z "},"ｎ":{"ha":1389,"x_min":232,"x_max":1175,"o":"m 1049 60 l 1175 49 l 1175 0 l 799 0 l 799 49 l 922 60 q 925 326 925 218 l 925 467 q 886 627 925 579 q 763 675 847 675 q 482 554 619 675 l 482 326 q 483 60 482 140 l 610 49 l 610 0 l 232 0 l 232 49 l 360 60 q 363 326 363 221 l 363 406 q 358 657 363 546 l 233 660 l 233 704 l 456 749 l 476 738 l 481 604 q 644 724 565 690 q 814 757 724 757 q 1046 485 1046 757 l 1046 326 q 1049 60 1046 218 z "},"ｏ":{"ha":1389,"x_min":294,"x_max":1094,"o":"m 981 79 q 924 27 981 79 q 694 -25 867 -25 q 408 79 522 -25 q 294 367 294 183 q 410 653 294 549 q 694 757 526 757 q 978 653 863 757 q 1094 367 1094 549 q 981 79 1094 183 m 497 115 q 533 71 497 115 q 694 26 569 26 q 892 115 819 26 q 964 365 964 204 q 892 617 964 526 q 694 707 819 707 q 497 617 569 707 q 425 365 425 526 q 497 115 425 204 z "},"ｐ":{"ha":1389,"x_min":226,"x_max":1114,"o":"m 499 589 l 499 133 q 722 47 594 47 q 912 135 839 47 q 985 372 985 224 q 914 604 985 522 q 722 686 843 686 q 499 589 607 686 m 493 739 l 497 636 q 772 757 608 757 q 1017 653 919 757 q 1114 372 1114 550 q 1013 82 1114 189 q 751 -25 911 -25 q 497 86 599 -25 l 497 -36 q 499 -310 497 -225 l 682 -322 l 682 -372 l 226 -372 l 226 -322 l 376 -311 q 379 -36 379 -142 l 379 406 q 374 657 379 558 l 233 660 l 233 704 l 472 749 l 493 739 z "},"ｑ":{"ha":1389,"x_min":282,"x_max":1171,"o":"m 899 146 l 899 604 q 682 686 806 686 q 486 599 561 686 q 411 364 411 511 q 482 130 411 213 q 675 47 553 47 q 899 146 794 47 m 1021 -311 l 1171 -322 l 1171 -372 l 728 -372 l 728 -322 l 897 -310 q 900 -46 900 -135 l 900 93 q 626 -25 789 -25 q 379 79 476 -25 q 282 363 282 183 q 388 649 282 542 q 654 757 494 757 q 917 643 814 757 l 988 744 l 1022 736 l 1018 531 l 1018 -46 q 1021 -311 1018 -133 z "},"ｒ":{"ha":1389,"x_min":404,"x_max":1094,"o":"m 675 738 l 681 554 q 808 702 731 647 q 964 757 886 757 q 1094 704 1065 757 q 1074 650 1094 671 q 1015 629 1053 629 q 908 663 971 629 l 883 675 q 681 499 768 638 l 681 326 q 683 63 681 221 l 871 47 l 871 0 l 404 0 l 404 47 l 558 61 q 561 326 561 222 l 561 406 q 556 657 561 563 l 411 660 l 411 708 l 657 749 l 675 738 z "},"ｓ":{"ha":1389,"x_min":350,"x_max":1022,"o":"m 642 442 l 810 411 q 973 335 924 389 q 1022 200 1022 282 q 933 36 1022 97 q 671 -25 844 -25 q 351 50 503 -25 l 350 221 l 424 221 l 450 69 q 685 26 547 26 q 852 65 792 26 q 913 171 913 103 q 875 260 913 225 q 738 315 838 296 l 585 343 q 374 549 374 383 q 457 701 374 646 q 699 757 540 757 q 981 693 833 757 l 972 544 l 899 544 l 876 672 q 690 707 790 707 q 533 672 589 707 q 478 578 478 638 q 515 494 478 528 q 642 442 551 460 z "},"ｔ":{"ha":1389,"x_min":353,"x_max":983,"o":"m 963 103 l 983 67 q 746 -25 885 -25 q 563 38 619 -25 q 507 225 506 100 q 508 276 507 240 q 508 338 508 311 l 508 674 l 353 674 l 353 722 l 511 733 l 553 964 l 633 964 l 629 732 l 915 732 l 915 660 l 629 671 l 629 239 q 666 97 629 142 q 778 53 703 53 q 963 103 875 53 z "},"ｕ":{"ha":1389,"x_min":208,"x_max":1163,"o":"m 1028 60 l 1163 49 l 1163 0 l 907 -8 l 908 132 q 611 -25 767 -25 q 408 43 474 -25 q 344 275 343 111 l 347 669 l 208 678 l 208 722 l 453 742 l 471 725 l 465 507 l 465 271 q 513 109 465 158 q 654 60 561 60 q 908 189 782 60 l 908 668 l 769 676 l 769 721 l 1015 742 l 1033 725 l 1028 507 l 1028 60 z "},"ｖ":{"ha":1389,"x_min":221,"x_max":1172,"o":"m 1172 732 l 1172 686 l 1049 675 l 733 -10 l 667 -10 l 356 672 l 221 686 l 221 732 l 619 732 l 619 686 l 488 672 l 735 106 l 983 675 l 853 686 l 853 732 l 1172 732 z "},"ｗ":{"ha":1389,"x_min":49,"x_max":1342,"o":"m 1342 732 l 1342 685 l 1221 672 l 974 -10 l 914 -10 l 696 596 l 482 -10 l 422 -10 l 168 674 l 49 685 l 49 732 l 424 732 l 424 685 l 299 674 l 482 144 l 668 672 l 538 685 l 538 732 l 913 732 l 913 685 l 788 674 l 975 144 l 1161 672 l 1036 685 l 1036 732 l 1342 732 z "},"ｘ":{"ha":1389,"x_min":233,"x_max":1157,"o":"m 1025 61 l 1157 49 l 1157 0 l 774 0 l 774 49 l 878 58 l 669 318 l 449 58 l 557 49 l 557 0 l 233 0 l 233 49 l 376 60 l 640 354 l 389 675 l 260 685 l 260 732 l 638 732 l 638 685 l 533 675 l 722 439 l 919 674 l 817 685 l 817 732 l 1132 732 l 1132 685 l 990 674 l 750 403 l 1025 61 z "},"ｙ":{"ha":1389,"x_min":221,"x_max":1206,"o":"m 1206 732 l 1206 686 l 1071 675 l 713 -115 q 568 -322 647 -260 q 379 -385 489 -385 q 282 -366 321 -385 q 238 -314 243 -347 q 303 -272 254 -272 q 396 -300 349 -272 l 453 -331 q 572 -253 524 -306 q 665 -103 621 -201 l 693 -39 l 367 672 l 221 686 l 221 732 l 629 732 l 629 686 l 497 672 l 751 92 l 1008 675 l 876 686 l 876 732 l 1206 732 z "},"ｚ":{"ha":1389,"x_min":344,"x_max":1063,"o":"m 994 229 l 1063 229 l 1051 0 l 344 0 l 344 42 l 901 686 l 451 686 l 419 518 l 351 524 l 361 732 l 1046 732 l 1046 690 l 496 47 l 960 47 l 994 229 z "}}}
